<svg width="21" height="21" viewBox="0 0 21 21" fill="none" xmlns="http://www.w3.org/2000/svg">
<path d="M15.9 20.5C11.8173 20.4947 7.90331 18.8705 5.0164 15.9836C2.12949 13.0967 0.505292 9.1827 0.5 5.09999C0.5 3.88 0.984642 2.70997 1.84731 1.8473C2.70998 0.984634 3.88 0.499992 5.1 0.499992C5.35834 0.498024 5.61625 0.521471 5.87 0.569992C6.11531 0.606293 6.35647 0.666582 6.59 0.749992C6.75425 0.807622 6.90061 0.907126 7.01461 1.03866C7.12861 1.1702 7.2063 1.32922 7.24 1.49999L8.61 7.49999C8.64693 7.66285 8.64248 7.83237 8.59706 7.99307C8.55165 8.15378 8.46671 8.30055 8.35 8.41999C8.22 8.55999 8.21 8.56999 6.98 9.20999C7.96499 11.3708 9.6932 13.1061 11.85 14.1C12.5 12.86 12.51 12.85 12.65 12.72C12.7694 12.6033 12.9162 12.5183 13.0769 12.4729C13.2376 12.4275 13.4071 12.4231 13.57 12.46L19.57 13.83C19.7353 13.8683 19.8881 13.9481 20.0141 14.0618C20.14 14.1756 20.235 14.3195 20.29 14.48C20.3744 14.7173 20.438 14.9616 20.48 15.21C20.5202 15.4613 20.5403 15.7155 20.54 15.97C20.5216 17.1848 20.0233 18.3429 19.154 19.1916C18.2847 20.0404 17.1149 20.5107 15.9 20.5ZM5.1 2.49999C4.41125 2.50263 3.75146 2.7774 3.26443 3.26442C2.77741 3.75145 2.50263 4.41124 2.5 5.09999C2.50265 8.65308 3.91528 12.0599 6.42769 14.5723C8.94011 17.0847 12.3469 18.4973 15.9 18.5C16.5888 18.4974 17.2485 18.2226 17.7356 17.7356C18.2226 17.2485 18.4974 16.5887 18.5 15.9C18.5 15.79 18.5 15.68 18.5 15.57L13.86 14.5L13.57 15.05C13.12 15.92 12.79 16.55 11.95 16.21C10.2929 15.6169 8.7887 14.662 7.54673 13.4149C6.30477 12.1677 5.35622 10.6596 4.77 8.99999C4.41 8.21999 5.09 7.85999 5.95 7.40999L6.5 7.13999L5.43 2.49999H5.1Z" fill="white"/>
</svg>
